<svg width="400" height="97" viewBox="0 0 400 97" fill="none" xmlns="http://www.w3.org/2000/svg">
    <path d="M70.2803 25.7259V95.4243C70.2803 95.6149 70.3561 95.7978 70.4909 95.9326C70.6257 96.0674 70.8085 96.1431 70.9992 96.1431H157.439C157.63 96.1431 157.813 96.0674 157.948 95.9326C158.082 95.7978 158.158 95.6149 158.158 95.4243V36.3H158.248V2.8741C158.248 2.43098 158.145 1.9939 157.948 1.59698C157.751 1.20006 157.465 0.854048 157.112 0.585954C156.759 0.317859 156.349 0.134936 155.914 0.0514688C155.479 -0.031998 155.03 -0.0137509 154.603 0.104784L72.3865 22.962C71.782 23.1298 71.2489 23.4908 70.8687 23.9898C70.4884 24.4888 70.2818 25.0985 70.2803 25.7259Z"
          fill="#02B803"/>
    <path d="M4.79794 37.1741C4.37209 37.0606 3.92586 37.0466 3.49372 37.133C3.06157 37.2194 2.65507 37.404 2.30561 37.6725C1.95616 37.941 1.6731 38.2863 1.47831 38.6816C1.28352 39.0769 1.1822 39.5117 1.18219 39.9524V95.3352C1.18219 95.5258 1.25792 95.7086 1.39273 95.8434C1.52754 95.9783 1.71038 96.054 1.90103 96.054H60.4862C60.6768 96.054 60.8597 95.9783 60.9945 95.8434C61.1293 95.7086 61.205 95.5258 61.205 95.3352V54.4118C61.205 53.7782 60.9957 53.1623 60.6096 52.6599C60.2236 52.1575 59.6823 51.7967 59.0701 51.6335L4.79794 37.1741Z"
          fill="#5DD800"/>
    <path d="M207.436 59.1982H195.901C195.81 59.198 195.72 59.2156 195.637 59.2501C195.553 59.2846 195.477 59.3353 195.413 59.3992C195.349 59.4631 195.298 59.5391 195.263 59.6227C195.228 59.7063 195.211 59.796 195.211 59.8865V95.2587C195.211 95.4493 195.286 95.6322 195.421 95.767C195.556 95.9018 195.739 95.9775 195.929 95.9775H201.633C201.824 95.9775 202.007 95.9018 202.142 95.767C202.276 95.6322 202.352 95.4493 202.352 95.2587V65.7325H203.687C205.713 70.7463 208 76.5312 210.272 81.342L217.261 95.9793H228.762C228.953 95.9793 229.136 95.9036 229.271 95.7688C229.405 95.634 229.481 95.4511 229.481 95.2605V59.9171C229.481 59.7264 229.405 59.5436 229.271 59.4088C229.136 59.274 228.953 59.1982 228.762 59.1982H223.06C222.869 59.1982 222.687 59.274 222.552 59.4088C222.417 59.5436 222.341 59.7264 222.341 59.9171V89.4541H221.006L207.436 59.1982Z"
          fill="white"/>
    <path d="M262.253 81.9475C262.253 87.3172 258.373 90.2033 253.916 90.2033C249.459 90.2033 245.578 87.3172 245.578 81.9475V59.9151C245.578 59.7245 245.502 59.5416 245.367 59.4068C245.232 59.272 245.049 59.1963 244.859 59.1963H238.851C238.66 59.1963 238.478 59.272 238.343 59.4068C238.208 59.5416 238.132 59.7245 238.132 59.9151V82.1991C238.132 91.7236 244.747 96.786 253.916 96.786C263.085 96.786 269.698 91.7218 269.698 82.1991V59.9151C269.698 59.7245 269.622 59.5416 269.488 59.4068C269.353 59.272 269.17 59.1963 268.979 59.1963H262.972C262.781 59.1963 262.598 59.272 262.463 59.4068C262.328 59.5416 262.253 59.7245 262.253 59.9151V81.9475Z"
          fill="white"/>
    <path d="M301.327 81.9475C301.327 87.3172 297.447 90.2033 292.988 90.2033C288.53 90.2033 284.65 87.3172 284.65 81.9475V59.9151C284.65 59.7245 284.574 59.5416 284.439 59.4068C284.305 59.272 284.122 59.1963 283.931 59.1963H277.923C277.733 59.1963 277.55 59.272 277.415 59.4068C277.28 59.5416 277.205 59.7245 277.205 59.9151V82.1991C277.205 91.7236 283.821 96.786 292.988 96.786C302.155 96.786 308.769 91.7236 308.769 82.2008V59.9169C308.769 59.7263 308.693 59.5434 308.558 59.4086C308.423 59.2738 308.24 59.1981 308.05 59.1981H302.042C301.851 59.1981 301.669 59.2738 301.534 59.4086C301.399 59.5434 301.323 59.7263 301.323 59.9169L301.327 81.9475Z"
          fill="white"/>
    <path d="M372.524 59.1957H361.783C361.647 59.1959 361.514 59.2384 361.404 59.3173C361.293 59.3962 361.209 59.5075 361.165 59.636L348.813 95.9767H356.14C356.277 95.9768 356.411 95.9339 356.523 95.8539C356.634 95.774 356.718 95.661 356.762 95.531L358.465 90.4417H375.897L377.538 95.4735C377.585 95.6176 377.676 95.7432 377.799 95.8323C377.922 95.9214 378.069 95.9694 378.221 95.9695H385.504L373.148 59.6288C373.103 59.5003 373.019 59.389 372.909 59.3101C372.798 59.2313 372.665 59.1887 372.529 59.1885L372.524 59.1957ZM360.489 84.053L366.285 63.5949H368.024L373.872 84.062L360.489 84.053Z"
          fill="white"/>
    <path d="M332.573 83.2844L349.509 60.0031C349.575 59.9144 349.616 59.809 349.625 59.6986C349.635 59.5882 349.614 59.4773 349.565 59.3782C349.515 59.2792 349.439 59.1959 349.344 59.1377C349.25 59.0795 349.142 59.0487 349.031 59.0488H341.867C341.757 59.0495 341.648 59.0756 341.549 59.1251C341.45 59.1747 341.364 59.2463 341.298 59.3346L325.942 80.4684C325.858 80.5782 325.743 80.6591 325.611 80.6995C325.479 80.74 325.338 80.7378 325.208 80.6935C325.077 80.6491 324.964 80.5648 324.884 80.4524C324.804 80.3401 324.762 80.2054 324.763 80.0676V78.8402V75.6486L324.666 59.791C324.666 59.6004 324.59 59.4175 324.455 59.2827C324.32 59.1479 324.138 59.0722 323.947 59.0722H317.934C317.743 59.0722 317.56 59.1479 317.426 59.2827C317.291 59.4175 317.215 59.6004 317.215 59.791V95.4992C317.215 95.6899 317.291 95.8727 317.426 96.0075C317.56 96.1423 317.743 96.2181 317.934 96.2181H324.01C324.183 96.2181 324.349 96.1496 324.471 96.0277C324.594 95.9058 324.663 95.7404 324.664 95.5675L324.734 83.7319H326.56L335.517 95.9862L343.064 96.0312C343.176 96.0318 343.285 96.0014 343.38 95.9432C343.475 95.8851 343.551 95.8016 343.601 95.7022C343.651 95.6027 343.672 95.4913 343.662 95.3805C343.652 95.2697 343.611 95.1639 343.544 95.0751L335.754 84.3644C335.605 84.1679 335.413 84.0085 335.193 83.8988C334.972 83.789 334.73 83.7319 334.483 83.7319H332.796C332.744 83.7321 332.693 83.7178 332.648 83.6905C332.604 83.6632 332.568 83.6241 332.545 83.5775C332.522 83.5309 332.512 83.4788 332.517 83.427C332.522 83.3752 332.541 83.3258 332.573 83.2844Z"
          fill="white"/>
</svg>
