<svg width="372" height="365" viewBox="0 0 372 365" fill="none" xmlns="http://www.w3.org/2000/svg">
<path fill-rule="evenodd" clip-rule="evenodd" d="M123.403 135.253C123.691 136.022 124.364 136.887 125.998 136.887H137.338C138.395 136.887 139.26 136.022 139.26 134.965V71.5377C139.26 70.4807 138.395 69.6157 137.338 69.6157H127.728C126.671 69.6157 125.806 70.4807 125.806 71.5377V107.672C125.806 108.249 125.133 108.441 124.941 107.865L111.775 71.3457C111.487 70.4807 110.814 69.6157 109.373 69.6157H97.9357C96.8787 69.6157 96.0137 70.4807 96.0137 71.5377V134.965C96.0137 136.022 96.8787 136.887 97.9357 136.887H107.546C108.603 136.887 109.468 136.022 109.468 134.965V101.714C109.468 101.137 110.141 100.945 110.333 101.522L123.403 135.253ZM258.263 192C258.839 192 259.224 192.385 259.224 192.961V197.093C259.224 201.418 255.284 204.589 249.518 204.589C243.656 204.589 240.676 201.13 240.196 196.901C239.235 188.829 239.235 178.065 240.196 169.993C240.676 165.765 243.656 162.305 249.518 162.305C255.572 162.305 258.936 166.725 258.936 170.666V170.762C258.936 171.819 259.801 172.684 260.858 172.684H270.468C271.525 172.684 272.39 171.723 272.39 170.762V170.666C272.39 157.884 262.78 148.754 249.518 148.754C236.256 148.754 227.991 158.461 226.646 169.993C225.684 178.065 225.684 188.829 226.646 196.901C227.991 208.434 236.256 218.14 249.518 218.14C262.684 218.14 272.39 208.626 272.39 197.093V180.948C272.39 179.892 271.525 179.026 270.468 179.026H251.728C250.671 179.026 249.806 179.892 249.806 180.948V190.078C249.806 191.135 250.671 192 251.728 192H258.263ZM75.5165 164.227V215.161C75.5165 216.218 74.6515 217.083 73.5945 217.083H63.9845C62.9275 217.083 62.0625 216.218 62.0625 215.161V164.227C62.0625 163.65 61.6785 163.267 61.1015 163.267H49.0885C48.0315 163.267 47.1665 162.401 47.1665 161.344V151.734C47.1665 150.677 48.0315 149.812 49.0885 149.812H88.4905C89.5475 149.812 90.4125 150.677 90.4125 151.734V161.344C90.4125 162.401 89.5475 163.267 88.4905 163.267H76.4775C75.9015 163.267 75.5165 163.65 75.5165 164.227ZM128.005 149.812H137.615C138.672 149.812 139.537 150.677 139.537 151.734V215.161C139.537 216.218 138.672 217.083 137.615 217.083H128.005C126.948 217.083 126.083 216.218 126.083 215.161V191.136C126.083 190.559 125.699 190.175 125.122 190.175H110.515C109.938 190.175 109.554 190.559 109.554 191.136V215.161C109.554 216.218 108.208 217.083 107.151 217.083H98.0211C96.9641 217.083 96.0991 216.218 96.0991 215.161V151.734C96.0991 150.677 96.9641 149.812 98.0211 149.812H107.632C108.689 149.812 109.554 150.677 109.554 151.734V175.759C109.554 176.336 109.938 176.72 110.515 176.72H125.122C125.699 176.72 126.083 176.336 126.083 175.759V151.734C126.083 150.677 126.948 149.812 128.005 149.812ZM161.811 217.083C162.868 217.083 163.733 216.218 163.733 215.161V151.734C163.733 150.677 162.868 149.812 161.811 149.812H152.201C151.144 149.812 150.279 150.677 150.279 151.734V215.161C150.279 216.218 151.144 217.083 152.201 217.083H161.811ZM204.353 149.812C202.719 149.812 202.046 150.677 201.758 151.446L188.688 185.177C188.496 185.754 187.823 185.562 187.823 184.985V151.734C187.823 150.677 186.958 149.812 185.902 149.812H176.291C175.234 149.812 174.369 150.677 174.369 151.734V215.161C174.369 216.218 175.234 217.083 176.291 217.083H187.728C189.169 217.083 189.842 216.218 190.13 215.354L203.296 178.835C203.488 178.258 204.161 178.45 204.161 179.027V215.161C204.161 216.218 205.026 217.083 206.083 217.083H215.693C216.75 217.083 217.615 216.218 217.615 215.161V151.734C217.615 150.677 216.75 149.812 215.693 149.812H204.353ZM300.737 189.405C288.724 186.714 279.21 181.428 279.21 169.031C279.21 157.692 288.532 148.754 301.217 148.754C314.095 148.754 323.321 157.692 323.321 169.031V170.473C323.321 171.53 322.456 172.395 321.399 172.395H311.693C310.636 172.395 309.77 171.53 309.77 170.473V169.031C309.77 165.188 306.695 161.824 301.217 161.824C295.836 161.824 292.857 164.707 292.857 168.551C292.857 172.203 296.412 174.509 301.41 175.47C314.768 178.161 324.666 183.735 324.666 197.093C324.666 209.586 314.864 218.139 301.217 218.139C287.956 218.139 278.345 208.818 278.345 197.093V194.21C278.345 193.153 279.21 192.288 280.267 192.288H289.974C291.031 192.288 291.896 193.153 291.896 194.21V197.093C291.896 201.514 295.259 204.973 301.217 204.973C306.984 204.973 310.732 201.61 310.732 197.093C310.732 192.961 307.945 191.039 300.737 189.405ZM196.151 296.384C209.413 296.384 219.023 287.351 219.023 274.473V274.377C219.023 273.32 218.158 272.455 217.101 272.455H207.491C206.434 272.455 205.569 273.416 205.569 274.473V274.569C205.569 278.702 201.821 282.834 196.151 282.834C190.289 282.834 187.31 279.374 186.829 275.146C185.868 267.073 185.868 256.31 186.829 248.237C187.31 244.009 190.289 240.549 196.151 240.549C202.205 240.549 205.569 244.97 205.569 248.911V249.006C205.569 250.063 206.434 250.928 207.491 250.928H217.101C218.158 250.928 219.023 249.967 219.023 249.006V248.911C219.023 236.129 209.413 226.999 196.151 226.999C182.889 226.999 174.624 236.705 173.279 248.237C172.318 256.31 172.318 267.073 173.279 275.146C174.624 286.678 182.889 296.384 196.151 296.384ZM272.39 248.237C273.351 256.31 273.351 267.073 272.39 275.146C271.045 286.678 262.78 296.384 249.518 296.384C236.256 296.384 227.991 286.678 226.646 275.146C225.685 267.073 225.685 256.31 226.646 248.237C227.991 236.705 236.256 226.999 249.518 226.999C262.78 226.999 271.045 236.705 272.39 248.237ZM258.84 275.146C259.801 267.073 259.801 256.31 258.84 248.237C258.359 244.009 255.38 240.549 249.518 240.549C243.656 240.549 240.677 244.009 240.196 248.237C239.235 256.31 239.235 267.073 240.196 275.146C240.677 279.374 243.656 282.834 249.518 282.834C255.38 282.834 258.359 279.374 258.84 275.146ZM163.474 122.472C163.474 123.049 163.859 123.433 164.435 123.433H187.211C188.268 123.433 189.133 124.298 189.133 125.355V134.965C189.133 136.022 188.268 136.887 187.211 136.887H151.942C150.885 136.887 150.02 136.022 150.02 134.965V71.5377C150.02 70.4807 150.885 69.6157 151.942 69.6157H186.827C187.884 69.6157 188.749 70.4807 188.749 71.5377V81.1477C188.749 82.2047 187.884 83.0697 186.827 83.0697H164.435C163.859 83.0697 163.474 83.4537 163.474 84.0307V95.5627C163.474 96.1397 163.859 96.5237 164.435 96.5237H186.058C187.115 96.5237 187.98 97.3887 187.98 98.4467V108.056C187.98 109.114 187.115 109.979 186.058 109.979H164.435C163.859 109.979 163.474 110.363 163.474 110.94V122.472ZM208.448 136.887H221.806C222.671 136.887 223.44 136.407 223.632 135.446L228.917 104.213C229.014 103.444 229.975 103.444 230.071 104.213L235.356 135.446C235.549 136.407 236.317 136.887 237.182 136.887H250.54C251.405 136.887 252.174 136.407 252.366 135.446L265.34 71.5377C265.532 70.5767 264.955 69.6157 263.418 69.6157H253.808C252.943 69.6157 252.174 70.0007 251.982 71.0567L244.101 113.438C244.005 113.919 243.813 114.111 243.429 114.111H242.852C242.468 114.111 242.276 113.919 242.18 113.438L235.645 71.0567C235.452 70.0957 234.684 69.6157 233.819 69.6157H225.17C224.305 69.6157 223.536 70.0957 223.344 71.0567L216.905 113.438C216.809 113.919 216.617 114.111 216.232 114.111H215.656C215.271 114.111 215.079 113.919 214.983 113.438L207.102 71.0567C206.91 70.0007 206.141 69.6157 205.276 69.6157H195.666C194.129 69.6157 193.552 70.5767 193.744 71.5377L206.622 135.446C206.814 136.407 207.583 136.887 208.448 136.887Z" fill="white"/>
</svg>
